<?xml version="1.0" encoding="UTF-8"?>
<svg version="1.1" xmlns="http://www.w3.org/2000/svg" width="271" height="238">
<path d="M0 0 C1.12148437 0.14824219 2.24296875 0.29648437 3.3984375 0.44921875 C7.0630071 1.42969076 8.93390951 2.66450527 11.625 5.3125 C12.734375 7.2421875 12.734375 7.2421875 13.375 9.1875 C13.71724609 10.22003906 13.71724609 10.22003906 14.06640625 11.2734375 C14.7945541 13.93143177 15.28332219 16.5790775 15.625 19.3125 C16.35708711 19.3054133 17.08917421 19.29832661 17.84344578 19.29102516 C24.98466161 19.25203027 32.06315038 19.47763703 39.18920898 19.92333984 C40.27532974 19.98840225 41.3614505 20.05346466 42.48048401 20.12049866 C46.02760701 20.33419153 49.57435805 20.55341591 53.12109375 20.7734375 C55.60302747 20.92566892 58.08496623 21.07781806 60.56690979 21.22988892 C65.74717044 21.54833959 70.92722543 21.86993411 76.10717773 22.19335938 C81.42293314 22.52481246 86.73897329 22.85078464 92.05541992 23.17089844 C98.49525862 23.55887166 104.93454131 23.95502416 111.37349129 24.35747147 C113.8225539 24.50930649 116.27178873 24.65838974 118.7211895 24.80466843 C122.13686024 25.00945596 125.55170608 25.22482857 128.96655273 25.44287109 C130.48223343 25.53026802 130.48223343 25.53026802 132.02853394 25.61943054 C142.38537355 26.30455904 142.38537355 26.30455904 146.4375 29.9375 C149.68750171 36.43750341 146.90802744 45.09486378 145.54296875 51.85546875 C145.32812332 52.94209305 145.11327789 54.02871735 144.891922 55.14826965 C144.43757238 57.43416835 143.97930354 59.71929118 143.51733398 62.00366211 C142.81315261 65.49676274 142.12755154 68.99317036 141.44335938 72.49023438 C140.99851274 74.71636932 140.5525861 76.94228877 140.10546875 79.16796875 C139.90221481 80.21075485 139.69896088 81.25354095 139.48954773 82.32792664 C137.22924475 93.34612823 137.22924475 93.34612823 132.53088379 96.89369202 C128.84876029 98.69150177 125.49265729 98.87104624 121.47338867 99.00439453 C120.66620895 99.0422406 119.85902924 99.08008667 119.02738953 99.11907959 C116.3663115 99.24072977 113.70485314 99.34296759 111.04296875 99.4453125 C109.18592172 99.52701369 107.32893217 99.61003117 105.47200012 99.69430542 C100.58471731 99.91299246 95.69690496 100.1156749 90.80877686 100.31445312 C82.99603284 100.63529589 75.18439736 100.98243219 67.37261391 101.3257103 C64.65197941 101.44330221 61.93116466 101.55537092 59.21025085 101.66629028 C57.52842999 101.73727255 55.84661124 101.80830471 54.16479492 101.87939453 C53.41595032 101.90848907 52.66710571 101.93758362 51.89556885 101.96755981 C50.48669766 102.02842223 49.07835086 102.10349821 47.67110252 102.19446182 C46.28037301 102.274692 44.88622122 102.30690397 43.49321938 102.29635239 C40.54386972 102.39595123 38.28186587 102.64825048 36.15445232 104.79957771 C34.82228774 106.76934784 33.70904753 108.75898551 32.625 110.875 C32.23183594 111.58591797 31.83867188 112.29683594 31.43359375 113.02929688 C30.47198134 114.77661699 29.54494326 116.54288693 28.625 118.3125 C30.44664169 118.31796844 30.44664169 118.31796844 32.30508423 118.32354736 C43.75253643 118.36049605 55.19971959 118.41826762 66.64696693 118.49640274 C72.5320713 118.53590392 78.41702544 118.5680796 84.30224609 118.58349609 C89.98232958 118.59864504 95.66200015 118.63305988 101.34189987 118.68080902 C103.5083698 118.69564089 105.67489868 118.70354205 107.84141922 118.70438385 C110.87731143 118.70674975 113.91205901 118.73380008 116.94775391 118.76660156 C118.28995499 118.75905602 118.28995499 118.75905602 119.65927124 118.75135803 C125.2510518 118.84477075 128.32864787 119.65734907 132.625 123.3125 C134.00625018 126.07500036 133.81579306 128.25981099 133.625 131.3125 C132.965 131.9725 132.305 132.6325 131.625 133.3125 C129.625 133.1875 129.625 133.1875 127.625 132.3125 C126.5 130.3125 126.5 130.3125 125.625 128.3125 C123.33902689 127.16951344 122.07247047 127.18547657 119.53236389 127.18119812 C118.67570633 127.17718994 117.81904877 127.17318176 116.93643188 127.16905212 C115.52362442 127.1698452 115.52362442 127.1698452 114.08227539 127.1706543 C112.59676933 127.16544266 112.59676933 127.16544266 111.08125305 127.16012573 C108.92592495 127.15276159 106.77058924 127.14741973 104.61525154 127.14383507 C101.20750343 127.13668697 97.79990076 127.12103382 94.39219666 127.10249329 C84.70167 127.04993843 75.01122281 127.00201376 65.32055664 126.98657227 C59.39830789 126.97651516 53.47642419 126.94724943 47.55431938 126.90525246 C45.29325554 126.892906 43.03214023 126.8878278 40.77104378 126.89005089 C37.61266967 126.89239243 34.45535106 126.87032491 31.29711914 126.8425293 C30.35727173 126.84913071 29.41742432 126.85573212 28.44909668 126.86253357 C22.14240134 126.77104812 22.14240134 126.77104812 19.52293396 124.44953918 C18.16807299 121.22503593 18.56427865 119.6581587 19.625 116.3125 C21.78651683 112.60057097 24.32345166 109.14617912 26.8515625 105.67773438 C27.3465625 104.96037109 27.8415625 104.24300781 28.3515625 103.50390625 C28.81127441 102.86654541 29.27098633 102.22918457 29.74462891 101.57250977 C31.87257679 96.10983268 29.01242321 89.76411029 27.359375 84.390625 C27.12943848 83.62844666 26.89950195 82.86626831 26.66259766 82.08099365 C25.90484201 79.57335435 25.13994878 77.06795345 24.375 74.5625 C23.84359927 72.80873799 23.31268326 71.05482903 22.78222656 69.30078125 C21.65828112 65.58707088 20.53140983 61.87426607 19.40234375 58.16210938 C17.57336665 52.14675062 15.75456251 46.12834192 13.9375 40.109375 C10.8375572 29.84246952 7.73280387 19.57702845 4.625 9.3125 C-0.325 8.3225 -5.275 7.3325 -10.375 6.3125 C-10.705 5.3225 -11.035 4.3325 -11.375 3.3125 C-8.15382689 -1.51925967 -5.32926623 -0.76219483 0 0 Z M18.625 26.3125 C20.02295696 34.28471526 22.16966641 41.94402215 24.50390625 49.6875 C25.06210304 51.55692261 25.06210304 51.55692261 25.63157654 53.46411133 C26.41298837 56.08026724 27.19734958 58.69551258 27.98413086 61.31005859 C28.99282751 64.66229858 29.99583982 68.01620574 30.99691868 71.37072754 C31.95539016 74.58114258 32.91714903 77.79056765 33.87890625 81 C34.41953453 82.80766846 34.41953453 82.80766846 34.97108459 84.65185547 C35.30490646 85.76061035 35.63872833 86.86936523 35.98266602 88.01171875 C36.42329124 89.47871216 36.42329124 89.47871216 36.87281799 90.9753418 C37.55617293 93.30125594 37.55617293 93.30125594 38.625 95.3125 C50.17806676 94.85958161 61.73039882 94.39131839 73.2820406 93.9033308 C78.6456807 93.67723497 84.00943088 93.45647632 89.3737793 93.24780273 C94.54848377 93.04631145 99.72243974 92.83094754 104.89616966 92.60585976 C106.87236362 92.52234522 108.84877719 92.44387315 110.8253727 92.37047386 C113.58916303 92.26698897 116.35163643 92.14576838 119.11450195 92.02026367 C120.3466468 91.98033798 120.3466468 91.98033798 121.60368347 91.93960571 C125.76512045 91.83708083 125.76512045 91.83708083 129.31202602 89.92233658 C131.04452702 87.79811818 131.37298545 86.03814046 131.89941406 83.35375977 C132.10262268 82.34583878 132.3058313 81.33791779 132.51519775 80.29945374 C132.72158875 79.21192307 132.92797974 78.1243924 133.140625 77.00390625 C133.36071228 75.8856395 133.58079956 74.76737274 133.80755615 73.61521912 C134.27021206 71.25002125 134.72711704 68.88369229 135.17871094 66.51635742 C135.87214683 62.88992109 136.58699201 59.26818849 137.3046875 55.64648438 C137.75128478 53.34920773 138.19663917 51.05168903 138.640625 48.75390625 C138.85511292 47.66839981 139.06960083 46.58289337 139.29058838 45.4644928 C139.57648834 43.94788307 139.57648834 43.94788307 139.86816406 42.40063477 C140.03898499 41.5125563 140.20980591 40.62447784 140.38580322 39.70948792 C140.62866342 37.27578887 140.37650391 35.62205246 139.625 33.3125 C118.18205143 31.61706954 96.72019392 30.29793518 75.2487793 29.02539062 C70.46701257 28.74188097 65.68553156 28.45381875 60.90410519 28.1646328 C57.17143423 27.93950503 53.43860308 27.71712844 49.7057209 27.49553299 C47.94158952 27.39041433 46.17751265 27.28437621 44.41349602 27.17734909 C35.81138351 26.65660847 27.24773245 26.16923436 18.625 26.3125 Z " fill="#108DF0" transform="translate(63.375,46.6875)"/>
<path d="M0 0 C2.75329021 1.79562405 4.52627461 3.05254922 6 6 C6.55881444 10.09797257 6.1370529 11.76872323 4 15.375 C0.47775176 18.45696721 0.47775176 18.45696721 -3 18.6875 C-6.30247758 18.42529951 -7.12463186 17.90718904 -9.9375 15.8125 C-12.04021316 12.94516387 -12.91190146 11.52394176 -13 8 C-12.23355683 5.07358062 -11.37191157 3.39946058 -9.3125 1.1875 C-5.99060274 -0.51833914 -3.68485182 -0.45252566 0 0 Z " fill="#108CF0" transform="translate(184,182)"/>
<path d="M0 0 C3.31327526 2.54867328 4.8095103 4.60307551 5.375 8.75 C4.85285211 13.27528174 3.40521835 15.02043395 0 18 C-2.85444748 18.81144575 -5.13727226 18.75608333 -8 18 C-10.9838283 16.01078114 -12.60276841 14.61497432 -13.4765625 11.0625 C-13.75890933 7.13936508 -13.21925086 5.32887629 -11 2 C-6.84437903 -0.77041398 -4.93332128 -0.70476018 0 0 Z " fill="#108CEF" transform="translate(91,182)"/>
<path d="M0 0 C3.4375 1.0625 3.4375 1.0625 5.5 3.25 C6.72425703 6.92277109 6.05102077 8.60495549 4.4375 12.0625 C2.4375 14.0625 2.4375 14.0625 -0.4375 14.4375 C-3.5625 14.0625 -3.5625 14.0625 -5.9375 12.4375 C-8.04956506 9.35063568 -8.17445145 7.7342087 -7.5625 4.0625 C-5.28407032 0.5081497 -4.25424245 0.07463583 0 0 Z " fill="#108FF1" transform="translate(177.5625,118.9375)"/>
<path d="M0 0 C3.4375 1.0625 3.4375 1.0625 5.5 3.25 C6.72425703 6.92277109 6.05102077 8.60495549 4.4375 12.0625 C2.4375 14.0625 2.4375 14.0625 -0.4375 14.4375 C-3.5625 14.0625 -3.5625 14.0625 -5.9375 12.4375 C-8.04956506 9.35063568 -8.17445145 7.7342087 -7.5625 4.0625 C-5.28407032 0.5081497 -4.25424245 0.07463583 0 0 Z " fill="#108EF1" transform="translate(157.5625,118.9375)"/>
<path d="M0 0 C3.4375 1.0625 3.4375 1.0625 5.5 3.25 C6.72425703 6.92277109 6.05102077 8.60495549 4.4375 12.0625 C2.4375 14.0625 2.4375 14.0625 -0.4375 14.4375 C-3.5625 14.0625 -3.5625 14.0625 -5.9375 12.4375 C-8.04956506 9.35063568 -8.17445145 7.7342087 -7.5625 4.0625 C-5.28407032 0.5081497 -4.25424245 0.07463583 0 0 Z " fill="#108EF1" transform="translate(117.5625,118.9375)"/>
<path d="M0 0 C3.375 0.875 3.375 0.875 5.375 2.875 C6.1875 5.1875 6.1875 5.1875 6.375 7.875 C5.2334081 10.1581838 4.18487317 12.06512683 2.375 13.875 C-1.18799065 14.27088785 -3.00139795 14.30167508 -6 12.25 C-8.11206506 9.16313568 -8.23695145 7.5467087 -7.625 3.875 C-5.30290294 0.25252859 -4.34513693 -0.14983231 0 0 Z " fill="#108EF1" transform="translate(137.625,119.125)"/>
<path d="M0 0 C2.8125 0.875 2.8125 0.875 4.8125 2.875 C5.625 5.1875 5.625 5.1875 5.8125 7.875 C4.6709081 10.1581838 3.62237317 12.06512683 1.8125 13.875 C-1.75049065 14.27088785 -3.56389795 14.30167508 -6.5625 12.25 C-8.1875 9.875 -8.1875 9.875 -8.75 6.875 C-8.1875 3.875 -8.1875 3.875 -6.0625 1.4375 C-3.1875 -0.125 -3.1875 -0.125 0 0 Z " fill="#108DF0" transform="translate(188.1875,100.125)"/>
<path d="M0 0 C1.88644674 2.37856329 2.0337486 3.53876916 1.8125 6.5625 C0.90600171 9.28199487 0.3989516 10.42827309 -2 12 C-5.63031776 12.54068562 -7.32214079 12.46379841 -10.375 10.375 C-12.46379841 7.32214079 -12.54068562 5.63031776 -12 2 C-8.60209645 -2.69234299 -4.92538405 -2.20070351 0 0 Z " fill="#108DF0" transform="translate(172,102)"/>
<path d="M0 0 C2.22535743 2.67042891 3.04145361 4.12947428 2.875 7.625 C1.90125807 10.2680138 1.36002096 11.45377937 -1 13 C-4.63031776 13.54068562 -6.32214079 13.46379841 -9.375 11.375 C-11.46379841 8.32214079 -11.54068562 6.63031776 -11 3 C-8.10180714 -1.00226632 -4.5407714 -1.58926999 0 0 Z " fill="#108DF0" transform="translate(151,101)"/>
<path d="M0 0 C1.88644674 2.37856329 2.0337486 3.53876916 1.8125 6.5625 C0.90600171 9.28199487 0.3989516 10.42827309 -2 12 C-5.63031776 12.54068562 -7.32214079 12.46379841 -10.375 10.375 C-12.46379841 7.32214079 -12.54068562 5.63031776 -12 2 C-8.60209645 -2.69234299 -4.92538405 -2.20070351 0 0 Z " fill="#108EF1" transform="translate(132,102)"/>
<path d="M0 0 C2 2 2 2 2.375 4.875 C2 8 2 8 0.375 10.375 C-2 12 -2 12 -5 12.5625 C-8 12 -8 12 -10.4375 9.875 C-12 7 -12 7 -12.0625 3.875 C-11 1 -11 1 -8.8125 -1 C-5.13066335 -2.30909747 -3.48546567 -1.62655064 0 0 Z " fill="#108FF1" transform="translate(112,102)"/>
<path d="M0 0 C2.4375 1.5625 2.4375 1.5625 4 4 C3.78571429 10.21428571 3.78571429 10.21428571 1 13 C-2.88002054 13.43111339 -5.14921964 13.53173772 -8.5 11.4375 C-10 9 -10 9 -9.9375 5.375 C-8.39784223 -0.16776797 -5.29368537 -0.64820637 0 0 Z " fill="#108EF1" transform="translate(160,82)"/>
<path d="M0 0 C3 2 3 2 3.875 5.375 C4 9 4 9 3 11.4375 C1 13 1 13 -2.4375 13.5 C-6 13 -6 13 -8.5 11.4375 C-10 9 -10 9 -9.9375 5.375 C-8.37160416 -0.26222502 -5.3203753 -0.44336461 0 0 Z " fill="#108DF1" transform="translate(140,82)"/>
<path d="M0 0 C2.4375 1.5625 2.4375 1.5625 4 4 C3.78571429 10.21428571 3.78571429 10.21428571 1 13 C-3.33643601 13.31537716 -5.32653229 13.44897847 -9 11 C-9.9375 7.625 -9.9375 7.625 -10 4 C-7.34473796 -0.14220879 -4.76467822 -0.79411304 0 0 Z " fill="#108DF1" transform="translate(120,82)"/>
<path d="M0 0 C1.875 1.0625 1.875 1.0625 3 3 C3.36528977 6.4093712 3.6140629 8.88023824 1.9375 11.9375 C-1.11976176 13.6140629 -3.5906288 13.36528977 -7 13 C-8.9375 11.9375 -8.9375 11.9375 -10 10 C-10.4375 6.5 -10.4375 6.5 -10 3 C-7.15121935 -0.39662308 -4.26361577 -0.54429137 0 0 Z " fill="#108DF0" transform="translate(180,82)"/>
</svg>
